<?xml version="1.0" encoding="UTF-8" standalone="no"?>
<svg
   width="150"
   height="150"
   version="1.1"
   viewBox="0 0 39.688125 39.688125"
   id="svg38"
   sodipodi:docname="game_background.svg"
   inkscape:version="1.1 (c68e22c387, 2021-05-23)"
   xmlns:inkscape="http://www.inkscape.org/namespaces/inkscape"
   xmlns:sodipodi="http://sodipodi.sourceforge.net/DTD/sodipodi-0.dtd"
   xmlns="http://www.w3.org/2000/svg"
   xmlns:svg="http://www.w3.org/2000/svg">
  <defs
     id="defs42" />
  <sodipodi:namedview
     id="namedview40"
     pagecolor="#ffffff"
     bordercolor="#666666"
     borderopacity="1.0"
     inkscape:pageshadow="2"
     inkscape:pageopacity="0.0"
     inkscape:pagecheckerboard="0"
     showgrid="false"
     inkscape:zoom="2.08"
     inkscape:cx="23.076923"
     inkscape:cy="154.56731"
     inkscape:window-width="1920"
     inkscape:window-height="1017"
     inkscape:window-x="-8"
     inkscape:window-y="-8"
     inkscape:window-maximized="1"
     inkscape:current-layer="svg38" />
  <g
     id="g36"
     transform="matrix(0.18135635,0,0,0.18135635,0.84946836,1.3978529)">
    <rect
       x="-6.0685"
       y="-7.1394"
       width="224.17999"
       height="225.61"
       fill="#0f0f0f"
       stroke-width="0.26458"
       id="rect2" />
    <g
       fill="#191919"
       id="g34">
      <path
         d="m 15.885,17.67 v 11.27 h 6.0684 v -6.5272 h -3.2127 v -4.7429 z"
         stroke-width="0.12851"
         id="path4" />
      <path
         d="m 100.95,85.652 9.2919,-6.3778 -3.4341,-5.0032 -5.3815,3.6938 1.8181,2.6488 -3.9104,2.684 z"
         stroke-width="0.12851"
         id="path6" />
      <path
         d="m 129.13,140.63 4.1224,-2.8296 -1.5236,-2.2197 -2.3876,1.6388 0.80661,1.1752 -1.7349,1.1908 z"
         stroke-width="0.057016"
         id="path8" />
      <path
         d="m 61.838,209.21 4.1224,-2.8296 -1.5236,-2.2197 -2.3876,1.6388 0.80661,1.1752 -1.7349,1.1908 z"
         stroke-width="0.057016"
         id="path10" />
      <path
         d="m 175.45,145.72 v 11.27 h 6.0684 v -6.5272 h -3.2127 v -4.7429 z"
         stroke-width="0.12851"
         id="path12" />
      <path
         d="m 134.97,32.495 10.213,4.7645 2.5654,-5.4994 -5.9153,-2.7594 -1.3582,2.9115 -4.2982,-2.0051 z"
         stroke-width="0.12851"
         id="path14" />
      <path
         d="m 32.55,182.66 v 9.1068 a 7.8535,8.4144 0 0 1 2.2441,-0.3536 7.8535,8.4144 0 0 1 7.8534,8.4144 7.8535,8.4144 0 0 1 -0.16334,1.6831 h 3.2084 v -14.463 a 7.8535,8.4144 0 0 1 -5.4492,2.362 7.8535,8.4144 0 0 1 -7.6933,-6.7499 z"
         stroke-width="0.23759"
         id="path16" />
      <path
         d="m 159.42,186.16 -2.5287,0.69538 a 2.2617,2.4232 74.624 0 1 0.26954,0.59613 2.2617,2.4232 74.624 0 1 -1.7368,2.8232 2.2617,2.4232 74.624 0 1 -0.47982,0.0832 l 0.24499,0.89088 4.0159,-1.1044 a 2.2617,2.4232 74.624 0 1 -1.072,-1.3328 2.2617,2.4232 74.624 0 1 1.2868,-2.6516 z"
         stroke-width="0.068421"
         id="path18" />
      <path
         d="m 155.24,84.599 7.1306,5.6646 a 8.4144,7.8535 38.463 0 1 1.119,-1.9771 8.4144,7.8535 38.463 0 1 11.473,-0.91535 8.4144,7.8535 38.463 0 1 1.2162,1.1748 l 1.9957,-2.5122 -11.324,-8.996 a 8.4144,7.8535 38.463 0 1 -1.5401,5.7359 8.4144,7.8535 38.463 0 1 -10.071,1.8253 z"
         stroke-width="0.23759"
         id="path20" />
      <path
         d="m 47.433,125.57 2.1363,1.6971 a 2.521,2.3529 38.463 0 1 0.33525,-0.59233 2.521,2.3529 38.463 0 1 3.4375,-0.27424 2.521,2.3529 38.463 0 1 0.36439,0.35197 l 0.5979,-0.75265 -3.3928,-2.6952 a 2.521,2.3529 38.463 0 1 -0.4614,1.7185 2.521,2.3529 38.463 0 1 -3.0171,0.54687 z"
         stroke-width="0.071181"
         id="path22" />
      <path
         d="m 46.066,64.433 a 3.7312,3.7312 0 0 0 -3.7312,3.7312 3.7312,3.7312 0 0 0 3.2246,3.6951 V 68.763 h 4.1883 a 3.7312,3.7312 0 0 0 0.04961,-0.59883 3.7312,3.7312 0 0 0 -3.7314,-3.7312 z"
         stroke-width="0.13657"
         id="path24" />
      <path
         d="m 124.15,194.68 a 3.7312,3.7312 0 0 0 -5.1767,1.0221 3.7312,3.7312 0 0 0 0.62141,4.8648 l 1.7238,-2.5721 3.4792,2.3318 a 3.7312,3.7312 0 0 0 0.3746,-0.46982 3.7312,3.7312 0 0 0 -1.0223,-5.1768 z"
         stroke-width="0.13657"
         id="path26" />
      <path
         d="m 77.868,163.89 a 4.8914,4.8914 0 0 0 4.846,4.9361 4.8914,4.8914 0 0 0 4.8828,-4.1825 l -4.0589,-0.0374 0.0506,-5.4904 a 4.8914,4.8914 0 0 0 -0.78439,-0.0722 4.8914,4.8914 0 0 0 -4.9361,4.8464 z"
         stroke-width="0.17904"
         id="path28" />
      <path
         d="m 27.589,113.14 a 2.0356,2.0356 0 0 0 2.0168,2.0542 2.0356,2.0356 0 0 0 2.0321,-1.7406 l -1.6892,-0.0156 0.02106,-2.2849 a 2.0356,2.0356 0 0 0 -0.32644,-0.0301 2.0356,2.0356 0 0 0 -2.0542,2.0169 z"
         stroke-width="0.074509"
         id="path30" />
      <path
         d="m 175.37,51.388 a 1.6787,1.6787 0 0 0 1.6631,1.694 1.6787,1.6787 0 0 0 1.6757,-1.4354 l -1.393,-0.01284 0.0174,-1.8842 a 1.6787,1.6787 0 0 0 -0.26919,-0.02478 1.6787,1.6787 0 0 0 -1.694,1.6632 z"
         stroke-width="0.061443"
         id="path32" />
    </g>
  </g>
</svg>
